HIERARCHY
ROOT Hips
{
	OFFSET 0.000000 0.000000 0.000000
	CHANNELS 6 Xposition Yposition Zposition Zrotation Yrotation Xrotation 
	JOINT LHipJoint
	{
		OFFSET 0.000000 0.000000 0.000000
		CHANNELS 3 Zrotation Yrotation Xrotation
		JOINT LeftUpLeg
		{
			OFFSET 1.363060 -1.794630 0.839290
			CHANNELS 3 Zrotation Yrotation Xrotation
			JOINT LeftLeg
			{
				OFFSET 2.448110 -6.726130 0.000000
				CHANNELS 3 Zrotation Yrotation Xrotation
				JOINT LeftFoot
				{
					OFFSET 2.562200 -7.039590 0.000000
					CHANNELS 3 Zrotation Yrotation Xrotation
					JOINT LeftToeBase
					{
						OFFSET 0.157640 -0.433110 2.322550
						CHANNELS 3 Zrotation Yrotation Xrotation
						End Site
						{
							OFFSET 0.000000 0.000000 0.000000
						}
					}
				}
			}
		}
	}
	JOINT RHipJoint
	{
		OFFSET 0.000000 0.000000 0.000000
		CHANNELS 3 Zrotation Yrotation Xrotation
		JOINT RightUpLeg
		{
			OFFSET -1.305520 -1.794630 0.839290
			CHANNELS 3 Zrotation Yrotation Xrotation
			JOINT RightLeg
			{
				OFFSET -2.542530 -6.985550 0.000000
				CHANNELS 3 Zrotation Yrotation Xrotation
				JOINT RightFoot
				{
					OFFSET -2.568260 -7.056230 0.000000
					CHANNELS 3 Zrotation Yrotation Xrotation
					JOINT RightToeBase
					{
						OFFSET -0.164730 -0.452590 2.363150
						CHANNELS 3 Zrotation Yrotation Xrotation
						End Site
						{
							OFFSET 0.000000 0.000000 0.000000
						}
					}
				}
			}
		}
	}
	JOINT LowerBack
	{
		OFFSET 0.000000 0.000000 0.000000
		CHANNELS 3 Zrotation Yrotation Xrotation
		JOINT Spine
		{
			OFFSET 0.028270 2.035590 -0.193380
			CHANNELS 3 Zrotation Yrotation Xrotation
			JOINT Spine1
			{
				OFFSET 0.056720 2.048850 -0.042750
				CHANNELS 3 Zrotation Yrotation Xrotation
				JOINT Neck
				{
					OFFSET 0.000000 0.000000 0.000000
					CHANNELS 3 Zrotation Yrotation Xrotation
					JOINT Neck1
					{
						OFFSET -0.054170 1.746240 0.172020
						CHANNELS 3 Zrotation Yrotation Xrotation
						JOINT Head
						{
							OFFSET 0.104070 1.761360 -0.123970
							CHANNELS 3 Zrotation Yrotation Xrotation
							End Site
							{
								OFFSET 0.000000 0.000000 0.000000
							}
						}
					}
				}
				JOINT LeftShoulder
				{
					OFFSET 0.000000 0.000000 0.000000
					CHANNELS 3 Zrotation Yrotation Xrotation
					JOINT LeftArm
					{
						OFFSET 3.362410 1.200890 -0.311210
						CHANNELS 3 Zrotation Yrotation Xrotation
						JOINT LeftForeArm
						{
							OFFSET 4.983000 -0.000000 -0.000000
							CHANNELS 3 Zrotation Yrotation Xrotation
							JOINT LeftHand
							{
								OFFSET 3.483560 -0.000000 -0.000000
								CHANNELS 3 Zrotation Yrotation Xrotation
								JOINT LeftFingerBase
								{
									OFFSET 0.000000 0.000000 0.000000
									CHANNELS 3 Zrotation Yrotation Xrotation
									JOINT LeftHandIndex1
									{
										OFFSET 0.715260 -0.000000 -0.000000
										CHANNELS 3 Zrotation Yrotation Xrotation
										End Site
										{
											OFFSET 0.000000 0.000000 0.000000
										}
									}
								}
								JOINT LThumb
								{
									OFFSET 0.000000 0.000000 0.000000
									CHANNELS 3 Zrotation Yrotation Xrotation
									End Site
									{
										OFFSET 0.000000 0.000000 0.000000
									}
								}
							}
						}
					}
				}
				JOINT RightShoulder
				{
					OFFSET 0.000000 0.000000 0.000000
					CHANNELS 3 Zrotation Yrotation Xrotation
					JOINT RightArm
					{
						OFFSET -3.136600 1.374050 -0.404650
						CHANNELS 3 Zrotation Yrotation Xrotation
						JOINT RightForeArm
						{
							OFFSET -5.241900 -0.000000 -0.000000
							CHANNELS 3 Zrotation Yrotation Xrotation
							JOINT RightHand
							{
								OFFSET -3.444170 -0.000000 -0.000000
								CHANNELS 3 Zrotation Yrotation Xrotation
								JOINT RightFingerBase
								{
									OFFSET 0.000000 0.000000 0.000000
									CHANNELS 3 Zrotation Yrotation Xrotation
									JOINT RightHandIndex1
									{
										OFFSET -0.622530 -0.000000 -0.000000
										CHANNELS 3 Zrotation Yrotation Xrotation
										End Site
										{
											OFFSET 0.000000 0.000000 0.000000
										}
									}
								}
								JOINT RThumb
								{
									OFFSET 0.000000 0.000000 0.000000
									CHANNELS 3 Zrotation Yrotation Xrotation
									End Site
									{
										OFFSET 0.000000 0.000000 0.000000
									}
								}
							}
						}
					}
				}
			}
		}
	}
}
MOTION
Frames: 6
Frame Time: 0.008333
0.613621 17.694286 -33.049751 -4.692090 -5.121292 1.256995 -0.980163 1.649998 0.998364 -8.232813 -8.565168 -19.161604 -1.901425 -0.226994 -0.230243 -1.358851 11.734361 18.315940 0.525500 -4.645600 -12.900500 -2.272687 -2.888796 1.350464 29.298165 4.771589 12.193963 -2.307756 -8.433128 28.329342 0.965279 -5.885360 -6.768298 -1.052000 6.521900 -18.306600 2.438537 -0.364313 4.740678 3.038554 -0.826137 -2.482712 7.837815 0.511986 -6.235242 -11.747577 1.965863 0.777917 1.805863 3.561136 13.336237 3.131900 0.750300 5.847800 -7.142557 4.053884 -2.751013 -92.379580 19.980054 4.409130 8.937859 -17.872246 -1.521359 -1.297515 -3.583552 20.536868 11.561020 25.501950 5.739800 -7.125000 0.000000 0.000000 -21.805900 58.525400 -7.438300 5.555737 -2.369732 -2.133638 70.078021 3.842549 31.089937 -17.438346 26.351959 -5.572567 1.250986 -0.583666 0.956810 -15.864923 14.665992 -4.605400 7.125000 0.000000 0.000000 7.066800 -14.238800 5.151600 
0.637981 17.704931 -32.818734 -4.498797 -5.086306 1.034413 -0.791527 1.352372 0.752084 -8.642185 -9.382099 -21.455660 -1.631390 2.216047 6.108097 -1.326469 10.995800 17.226196 0.761100 -5.571300 -15.545400 -2.289400 -2.811242 1.348844 28.939650 4.428937 12.469704 -2.482001 -8.653083 29.134939 0.989635 -5.763694 -5.412697 -1.138700 6.776600 -19.055100 2.652257 -0.094552 4.592245 2.837645 -0.480573 -2.300290 7.048287 0.625834 -5.544784 -11.518698 1.396909 0.044859 1.822799 2.869225 13.903102 3.114800 0.388400 6.276600 -7.227539 4.058693 -2.670661 -91.576444 19.199486 4.631052 8.599561 -17.257441 -1.378411 -1.344848 -3.512306 21.468979 11.498983 25.045114 5.621600 -7.125000 0.000000 0.000000 -21.493800 58.042700 -7.073100 5.543556 -2.381137 -2.128578 70.659024 4.254616 29.354733 -17.434859 26.365763 -5.574984 1.206558 -0.721906 0.804644 -15.286093 16.097272 -4.874000 7.125000 0.000000 0.000000 7.525600 -12.683400 5.740500 
0.663570 17.719875 -32.581065 -4.230557 -4.872864 0.945240 -0.677717 1.268500 0.686768 -9.112077 -9.864732 -22.011603 -1.460928 3.147981 8.643053 -1.103497 10.124223 17.247253 0.821800 -5.784000 -16.158900 -2.290724 -2.786224 1.332739 28.535975 4.188419 12.393385 -2.729147 -9.011618 30.323800 1.037392 -5.786887 -3.966258 -1.168900 6.862900 -19.309900 2.827514 0.275524 4.477566 2.587251 0.016866 -2.206172 6.143400 0.824601 -5.205715 -10.802208 1.052397 -0.549527 1.981014 2.372164 13.644644 3.055100 0.225200 6.337700 -7.299180 4.031558 -2.605419 -90.490819 18.640553 5.346290 8.238730 -16.612149 -1.229393 -1.362959 -3.472236 22.551521 11.114938 24.911461 5.382000 -7.125000 0.000000 0.000000 -21.808300 57.797600 -7.052900 5.515449 -2.394980 -2.132744 71.349983 4.286839 27.151712 -17.609224 26.591111 -5.691323 1.112393 -0.717566 0.426904 -14.204345 16.177759 -4.533900 7.125000 0.000000 0.000000 8.312000 -12.705200 6.349100 
0.686396 17.738913 -32.351175 -3.974814 -4.586167 0.704742 -0.593157 1.231708 0.743675 -9.733313 -9.870155 -22.399472 -1.326520 3.827436 10.651998 -0.572222 8.100981 17.477436 0.603400 -4.972400 -13.829900 -2.317158 -2.768127 1.356542 28.251117 3.994544 12.314346 -3.017521 -9.400928 31.652692 1.100705 -5.895815 -2.106009 -1.109600 6.692500 -18.807400 2.693223 0.129284 4.678825 2.532100 -0.160528 -2.522927 6.117394 0.815719 -6.478328 -10.975149 1.040264 1.649096 1.955284 2.165432 13.881190 3.068200 0.094500 6.003900 -7.306974 4.165886 -2.703003 -90.386426 20.299726 4.781149 7.984942 -16.228601 -1.127246 -1.419858 -3.456123 23.247688 11.285627 24.880563 5.469100 -7.125000 0.000000 0.000000 -21.604300 57.815600 -6.992200 5.422901 -2.422857 -2.150599 71.499341 2.456431 26.856654 -17.706219 26.771557 -5.762562 1.114392 -0.740593 0.439640 -14.163327 16.519747 -4.616200 7.125000 0.000000 0.000000 8.345800 -12.339200 6.439800 
0.710347 17.744952 -32.113915 -3.539063 -4.269502 0.459897 -0.539655 1.204258 0.779394 -10.507701 -9.961383 -22.406944 -1.235930 4.283643 12.099371 -0.012083 6.022339 18.073259 0.479100 -4.439000 -12.315200 -2.338711 -2.757011 1.333243 27.705972 3.664000 12.042239 -3.380985 -9.886310 33.290259 1.154536 -6.069878 0.032550 -1.158700 6.834100 -19.224700 2.261693 0.108236 4.644282 2.464390 -0.222212 -2.538334 6.101843 0.793623 -6.493922 -10.473574 1.494724 1.620572 2.185842 2.721688 13.627302 3.068100 0.434300 5.849200 -7.350125 4.193272 -2.674032 -90.223317 20.223907 4.011724 7.651206 -15.594789 -0.979830 -1.512148 -3.423960 24.042698 11.575787 24.882263 5.636600 -7.125000 0.000000 0.000000 -21.268100 57.895300 -6.918000 5.462004 -2.465146 -2.160866 71.658159 1.972062 25.799212 -17.365543 26.353398 -5.526784 1.218571 -1.027586 1.252026 -15.365341 19.167905 -5.846200 7.125000 0.000000 0.000000 7.586400 -9.240900 6.326900 
0.736038 17.748125 -31.869183 -2.955421 -4.014299 0.272854 -0.499107 1.177653 0.788910 -11.480214 -9.903948 -22.269282 -1.162130 4.641037 13.273234 0.457162 4.193949 18.643196 0.478400 -4.435500 -12.305100 -2.358228 -2.744010 1.272416 26.972688 3.464455 11.567348 -3.810406 -10.442572 35.164042 1.188690 -6.323776 2.550238 -1.153300 6.818500 -19.178700 1.568535 0.265184 4.496228 2.381605 -0.073473 -2.308696 6.148211 0.820542 -5.590654 -10.591643 0.718913 0.159676 2.141335 1.833452 14.270782 3.050000 -0.046600 6.492100 -7.408063 4.150557 -2.547430 -89.985368 18.802652 3.381929 7.278487 -14.801621 -0.823070 -1.602244 -3.353563 25.265294 11.617105 24.708820 5.635400 -7.125000 0.000000 0.000000 -21.054000 57.722600 -6.755500 5.440789 -2.483995 -2.208312 72.038916 2.505483 25.307211 -18.212546 27.349482 -6.024433 1.225333 -0.538270 0.031481 -15.498206 14.840466 -4.534900 7.125000 0.000000 0.000000 7.341400 -14.121800 5.373500 
